<svg xmlns="http://www.w3.org/2000/svg" version="1.1" xmlns:xlink="http://www.w3.org/1999/xlink" xmlns:svgjs="http://svgjs.dev/svgjs" width="1000" height="1000" viewBox="0 0 1000 1000"><rect width="1000" height="1000" fill="#ffffff"></rect><g transform="matrix(0.7,0,0,0.7,149.57575757575756,282.1265587044535)"><svg viewBox="0 0 396 247" data-background-color="#ffffff" preserveAspectRatio="xMidYMid meet" height="623" width="1000" xmlns="http://www.w3.org/2000/svg" xmlns:xlink="http://www.w3.org/1999/xlink"><g id="tight-bounds" transform="matrix(1,0,0,1,0.2400000000000091,-0.09999999999999432)"><svg viewBox="0 0 395.52 247.2" height="247.2" width="395.52"><g><svg></svg></g><g><svg viewBox="0 0 395.52 247.2" height="247.2" width="395.52"><g transform="matrix(1,0,0,1,39.55199999999999,99.35694272681195)"><svg viewBox="0 0 316.416 48.48611454637608" height="48.48611454637608" width="316.416"><g><svg viewBox="0 0 316.416 48.48611454637608" height="48.48611454637608" width="316.416"><g><svg viewBox="0 0 316.416 48.48611454637608" height="48.48611454637608" width="316.416"><g><svg viewBox="0 0 316.416 48.48611454637608" height="48.48611454637608" width="316.416"><g id="textblocktransform"><svg viewBox="0 0 316.416 48.48611454637608" height="48.48611454637608" width="316.416" id="textblock"><g><svg viewBox="0 0 316.416 48.48611454637608" height="48.48611454637608" width="316.416"><g transform="matrix(1,0,0,1,0,0)"><svg width="316.416" viewBox="-3.699999988079071 -41.5 296.9100036621094 46.349998474121094" height="48.48611454637608" data-palette-color="#ff2625"><path d="M6.65-34L6.65-34Q9.2-35.65 12.13-36.58 15.05-37.5 17.85-37.5L17.85-37.5Q18.2-37.5 18.63-37.48 19.05-37.45 19.85-37.4L19.85-37.4 16.6-22.1Q18.7-25 23.33-31.15 27.95-37.3 27.95-37.25L27.95-37.25 33.2-37.25 19.3-21.25Q19.5-21.25 19.68-21.25 19.85-21.25 20.25-21.3L20.25-21.3 21.05-21.3Q24.2-21.3 25.73-20 27.25-18.7 27.25-15.95L27.25-15.95Q27.25-14.8 27-13.33 26.75-11.85 25.9-8.85L25.9-8.85Q25.2-6.3 25-5.2 24.8-4.1 24.8-3.3L24.8-3.3Q24.8-2.15 25.33-1.25 25.85-0.35 26.75 0L26.75 0Q25.3 0.4 24.03 0.63 22.75 0.85 21.8 0.85L21.8 0.85Q19.85 0.85 18.88 0.03 17.9-0.8 17.9-2.5L17.9-2.5Q17.9-3.35 18.15-4.58 18.4-5.8 19.15-8.65L19.15-8.65Q20-11.75 20.28-13.18 20.55-14.6 20.55-15.65L20.55-15.65Q20.55-17.35 19.8-18.2 19.05-19.05 17.55-19.05L17.55-19.05Q17.3-19.05 16.98-19 16.65-18.95 15.9-18.85L15.9-18.85 11.9 0 4.7 0 11.95-34Q8.55-32.6 6.75-29.78 4.95-26.95 4.95-23.05L4.95-23.05Q4.95-22.1 5.08-21.4 5.2-20.7 5.5-20.05L5.5-20.05Q5.6-19.85 5.63-19.78 5.65-19.7 5.65-19.65L5.65-19.65Q2.85-19.65 1.58-20.83 0.3-22 0.3-24.5L0.3-24.5Q0.3-27 1.98-29.5 3.65-32 6.65-34ZM42.4-31.65L42.4-31.65Q42.4-30 41.22-28.85 40.05-27.7 38.4-27.7L38.4-27.7Q36.75-27.7 35.6-28.85 34.45-30 34.45-31.65L34.45-31.65Q34.45-33.3 35.6-34.48 36.75-35.65 38.4-35.65L38.4-35.65Q40.05-35.65 41.22-34.48 42.4-33.3 42.4-31.65ZM29.65-5.7L29.65-5.7Q29.65-6.35 29.75-7.18 29.85-8 30.05-8.95L30.05-8.95 33.45-25 40.65-25 37.05-8Q36.95-7.55 36.9-7.18 36.85-6.8 36.85-6.4L36.85-6.4Q36.85-5.4 37.32-4.98 37.8-4.55 38.9-4.55L38.9-4.55Q40.3-4.55 41.55-5.78 42.8-7 43.4-8.95L43.4-8.95 45.5-8.95Q43.9-4.4 41.2-2.05 38.5 0.3 35 0.3L35 0.3Q32.5 0.3 31.07-1.28 29.65-2.85 29.65-5.7ZM55.15-5.35L55.15-5.35Q55.15-6.25 55.37-7.6 55.6-8.95 56.3-11.9L56.3-11.9Q57-14.75 57.2-16 57.4-17.25 57.4-18.1L57.4-18.1Q57.4-19.35 56.95-20 56.5-20.65 55.6-20.65L55.6-20.65Q54.4-20.65 53.37-19.43 52.35-18.2 51.7-16.05L51.7-16.05 48.3 0 41.1 0 46.4-25 53.6-25 53.05-22.4Q54.3-23.8 55.75-24.5 57.2-25.2 58.9-25.2L58.9-25.2Q61.55-25.2 63-23.75 64.45-22.3 64.45-19.55L64.45-19.55Q64.45-18.4 64.17-16.82 63.9-15.25 63.1-12L63.1-12Q62.45-9.45 62.25-8.4 62.05-7.35 62.05-6.65L62.05-6.65Q62.05-5.6 62.55-5.08 63.05-4.55 64.05-4.55L64.05-4.55Q65.3-4.55 66.2-5.4 67.09-6.25 68.25-8.95L68.25-8.95 70.34-8.95Q68.75-4.3 66.47-2 64.2 0.3 61.05 0.3L61.05 0.3Q58.25 0.3 56.7-1.23 55.15-2.75 55.15-5.35ZM83.54-8.35L83.54-8.35Q83.54-7.75 83.49-7.3 83.44-6.85 83.34-6.45L83.34-6.45Q84.34-7.05 85.29-7.7 86.24-8.35 86.94-8.95L86.94-8.95 89.04-8.95Q87.49-7.15 85.62-5.63 83.74-4.1 81.39-2.7L81.39-2.7Q80.04-1.25 77.94-0.48 75.84 0.3 73.54 0.3L73.54 0.3Q70.19 0.3 68.22-1.53 66.24-3.35 66.24-6.1L66.24-6.1Q66.24-7.65 66.99-8.93 67.74-10.2 68.89-10.75L68.89-10.75Q70.59-13.8 72.07-17.28 73.54-20.75 75.04-25.55L75.04-25.55 82.44-26.55Q82.59-22.8 82.79-19.7 82.99-16.6 83.29-12.95L83.29-12.95Q83.44-10.85 83.49-10 83.54-9.15 83.54-8.35ZM75.34-20.15L75.34-20.15Q74.69-18.1 73.77-15.88 72.84-13.65 71.29-10.7L71.29-10.7Q71.84-10.45 72.14-10 72.44-9.55 72.44-8.95L72.44-8.95Q72.44-8 71.79-7.25 71.14-6.5 70.24-6.5L70.24-6.5Q69.74-6.5 69.39-6.68 69.04-6.85 68.89-7.15L68.89-7.15Q68.89-5.3 69.62-4.48 70.34-3.65 71.94-3.65L71.94-3.65Q73.99-3.65 75.14-4.85 76.29-6.05 76.29-8.3L76.29-8.3Q76.29-9 76.24-9.73 76.19-10.45 76.04-12.15L76.04-12.15Q75.79-14.5 75.64-16.3 75.49-18.1 75.34-20.15ZM88.29-23L88.69-25 90.34-25 91.84-31.9 99.24-32.9 97.54-25 100.54-25 100.14-23 97.14-23 93.94-8Q93.84-7.55 93.79-7.18 93.74-6.8 93.74-6.4L93.74-6.4Q93.74-5.4 94.22-4.98 94.69-4.55 95.79-4.55L95.79-4.55Q97.19-4.55 98.44-5.78 99.69-7 100.29-8.95L100.29-8.95 102.39-8.95Q100.79-4.4 98.09-2.05 95.39 0.3 91.89 0.3L91.89 0.3Q89.39 0.3 87.97-1.28 86.54-2.85 86.54-5.7L86.54-5.7Q86.54-6.35 86.64-7.18 86.74-8 86.94-8.95L86.94-8.95 89.94-23 88.29-23ZM98.94-7.7L98.94-7.7Q98.94-10.55 99.86-13.75 100.79-16.95 102.39-19.45L102.39-19.45Q104.24-22.4 106.84-23.93 109.44-25.45 112.64-25.45L112.64-25.45Q115.84-25.45 117.44-23.45 119.04-21.45 119.04-17.45L119.04-17.45Q119.14-17.4 119.26-17.38 119.39-17.35 119.59-17.35L119.59-17.35Q121.14-17.35 123.29-18.2 125.44-19.05 127.29-20.35L127.29-20.35 127.74-19Q126.34-17.5 124.01-16.4 121.69-15.3 118.89-14.85L118.89-14.85Q118.29-8.1 114.99-3.95 111.69 0.2 106.94 0.2L106.94 0.2Q103.04 0.2 100.99-1.8 98.94-3.8 98.94-7.7ZM113.04-22.4L113.04-22.4Q110.64-22.4 108.51-17.55 106.39-12.7 106.39-8.35L106.39-8.35Q106.39-6 106.91-5.15 107.44-4.3 108.94-4.3L108.94-4.3Q110.79-4.3 112.46-7.3 114.14-10.3 114.74-14.7L114.74-14.7Q114.04-14.85 113.71-15.38 113.39-15.9 113.39-16.8L113.39-16.8Q113.39-17.75 113.79-18.45 114.19-19.15 114.94-19.5L114.94-19.5Q114.84-21.1 114.41-21.75 113.99-22.4 113.04-22.4ZM133.98-5.35L133.98-5.35Q133.98-6.25 134.21-7.6 134.44-8.95 135.13-11.9L135.13-11.9Q135.83-14.75 136.03-16 136.23-17.25 136.23-18.1L136.23-18.1Q136.23-19.35 135.78-20 135.33-20.65 134.44-20.65L134.44-20.65Q133.23-20.65 132.21-19.43 131.19-18.2 130.53-16.05L130.53-16.05 127.13 0 119.93 0 125.23-25 132.44-25 131.88-22.4Q133.13-23.8 134.58-24.5 136.03-25.2 137.73-25.2L137.73-25.2Q140.38-25.2 141.83-23.75 143.28-22.3 143.28-19.55L143.28-19.55Q143.28-18.4 143.01-16.82 142.73-15.25 141.94-12L141.94-12Q141.28-9.45 141.08-8.4 140.88-7.35 140.88-6.65L140.88-6.65Q140.88-5.6 141.38-5.08 141.88-4.55 142.88-4.55L142.88-4.55Q144.13-4.55 145.03-5.4 145.94-6.25 147.08-8.95L147.08-8.95 149.19-8.95Q147.58-4.3 145.31-2 143.03 0.3 139.88 0.3L139.88 0.3Q137.08 0.3 135.53-1.23 133.98-2.75 133.98-5.35ZM183.48-31.5L183.48-31.5Q182.13-31.5 180.5-31.73 178.88-31.95 176.48-32.45L176.48-32.45 174.38-22.5 181.68-22.5 180.88-18.8 173.58-18.8 169.53 0 162.33 0 169.53-33.4Q166.08-33.25 164.55-30.75 163.03-28.25 163.03-23.05L163.03-23.05Q163.03-22.1 163.15-21.4 163.28-20.7 163.58-20.05L163.58-20.05Q163.68-19.85 163.7-19.78 163.73-19.7 163.73-19.65L163.73-19.65Q160.93-19.65 159.65-20.83 158.38-22 158.38-24.5L158.38-24.5Q158.38-30.45 162.85-33.98 167.33-37.5 175.43-37.5L175.43-37.5Q175.88-37.5 176.53-37.45 177.18-37.4 178.68-37.25L178.68-37.25Q180.68-37.05 181.75-36.98 182.83-36.9 183.73-36.9L183.73-36.9Q185.08-36.9 186.18-37.05 187.28-37.2 188.23-37.5L188.23-37.5Q188.18-37.4 187.78-35.95 187.38-34.5 186.83-33.65L186.83-33.65Q186.28-32.8 185.45-32.27 184.63-31.75 183.48-31.5ZM193.23-31.65L193.23-31.65Q193.23-30 192.05-28.85 190.88-27.7 189.23-27.7L189.23-27.7Q187.58-27.7 186.43-28.85 185.28-30 185.28-31.65L185.28-31.65Q185.28-33.3 186.43-34.48 187.58-35.65 189.23-35.65L189.23-35.65Q190.88-35.65 192.05-34.48 193.23-33.3 193.23-31.65ZM180.48-5.7L180.48-5.7Q180.48-6.35 180.58-7.18 180.68-8 180.88-8.95L180.88-8.95 184.28-25 191.48-25 187.88-8Q187.78-7.55 187.73-7.18 187.68-6.8 187.68-6.4L187.68-6.4Q187.68-5.4 188.15-4.98 188.63-4.55 189.73-4.55L189.73-4.55Q191.13-4.55 192.38-5.78 193.63-7 194.23-8.95L194.23-8.95 196.33-8.95Q194.73-4.4 192.03-2.05 189.33 0.3 185.83 0.3L185.83 0.3Q183.33 0.3 181.9-1.28 180.48-2.85 180.48-5.7ZM195.57-23L195.97-25 197.63-25 199.13-31.9 206.53-32.9 204.82-25 207.82-25 207.42-23 204.42-23 201.22-8Q201.13-7.55 201.07-7.18 201.03-6.8 201.03-6.4L201.03-6.4Q201.03-5.4 201.5-4.98 201.97-4.55 203.07-4.55L203.07-4.55Q204.47-4.55 205.72-5.78 206.97-7 207.57-8.95L207.57-8.95 209.67-8.95Q208.07-4.4 205.38-2.05 202.67 0.3 199.17 0.3L199.17 0.3Q196.67 0.3 195.25-1.28 193.82-2.85 193.82-5.7L193.82-5.7Q193.82-6.35 193.92-7.18 194.03-8 194.22-8.95L194.22-8.95 197.22-23 195.57-23ZM219.72-5.35L219.72-5.35Q219.72-6.25 219.95-7.6 220.17-8.95 220.87-11.9L220.87-11.9Q221.57-14.75 221.77-16 221.97-17.25 221.97-18.1L221.97-18.1Q221.97-19.35 221.52-20 221.07-20.65 220.17-20.65L220.17-20.65Q218.97-20.65 217.95-19.43 216.92-18.2 216.27-16.05L216.27-16.05 212.87 0 205.67 0 210.97-25 218.17-25 217.62-22.4Q218.87-23.8 220.32-24.5 221.77-25.2 223.47-25.2L223.47-25.2Q226.12-25.2 227.57-23.75 229.02-22.3 229.02-19.55L229.02-19.55Q229.02-18.4 228.75-16.82 228.47-15.25 227.67-12L227.67-12Q227.02-9.45 226.82-8.4 226.62-7.35 226.62-6.65L226.62-6.65Q226.62-5.6 227.12-5.08 227.62-4.55 228.62-4.55L228.62-4.55Q229.87-4.55 230.77-5.4 231.67-6.25 232.82-8.95L232.82-8.95 234.92-8.95Q233.32-4.3 231.05-2 228.77 0.3 225.62 0.3L225.62 0.3Q222.82 0.3 221.27-1.23 219.72-2.75 219.72-5.35ZM251.62-20.65L251.62-20.65Q251.62-16.5 248.22-13.43 244.82-10.35 240.12-10.1L240.12-10.1Q240.07-9.25 240.04-8.83 240.02-8.4 240.02-8.1L240.02-8.1Q240.02-5.8 240.79-4.85 241.57-3.9 243.62-3.9L243.62-3.9Q245.97-3.9 247.94-4.98 249.92-6.05 252.47-8.95L252.47-8.95 254.17-8.95Q251.27-4.25 247.87-1.98 244.47 0.3 240.42 0.3L240.42 0.3Q236.57 0.3 234.59-1.7 232.62-3.7 232.62-7.65L232.62-7.65Q232.62-10.5 233.52-13.7 234.42-16.9 235.92-19.4L235.92-19.4Q237.77-22.4 240.34-23.93 242.92-25.45 246.12-25.45L246.12-25.45Q248.87-25.45 250.24-24.28 251.62-23.1 251.62-20.65ZM246.52-22.8L246.52-22.8Q244.82-22.8 243.09-19.78 241.37-16.75 240.52-12.5L240.52-12.5Q243.42-12.7 245.59-15.18 247.77-17.65 247.77-20.75L247.77-20.75Q247.77-21.8 247.47-22.3 247.17-22.8 246.52-22.8ZM267.22-8.35L267.22-8.35Q267.22-7.75 267.17-7.3 267.12-6.85 267.02-6.45L267.02-6.45Q268.02-7.05 268.97-7.7 269.92-8.35 270.62-8.95L270.62-8.95 272.72-8.95Q271.17-7.15 269.29-5.63 267.42-4.1 265.07-2.7L265.07-2.7Q263.72-1.25 261.62-0.48 259.52 0.3 257.22 0.3L257.22 0.3Q253.87 0.3 251.89-1.53 249.92-3.35 249.92-6.1L249.92-6.1Q249.92-7.65 250.67-8.93 251.42-10.2 252.57-10.75L252.57-10.75Q254.27-13.8 255.74-17.28 257.22-20.75 258.72-25.55L258.72-25.55 266.12-26.55Q266.27-22.8 266.47-19.7 266.67-16.6 266.97-12.95L266.97-12.95Q267.12-10.85 267.17-10 267.22-9.15 267.22-8.35ZM259.02-20.15L259.02-20.15Q258.37-18.1 257.44-15.88 256.52-13.65 254.97-10.7L254.97-10.7Q255.52-10.45 255.82-10 256.12-9.55 256.12-8.95L256.12-8.95Q256.12-8 255.47-7.25 254.82-6.5 253.92-6.5L253.92-6.5Q253.42-6.5 253.07-6.68 252.72-6.85 252.57-7.15L252.57-7.15Q252.57-5.3 253.29-4.48 254.02-3.65 255.62-3.65L255.62-3.65Q257.67-3.65 258.82-4.85 259.97-6.05 259.97-8.3L259.97-8.3Q259.97-9 259.92-9.73 259.87-10.45 259.72-12.15L259.72-12.15Q259.47-14.5 259.32-16.3 259.17-18.1 259.02-20.15ZM283.71-8.35L283.71-8.35Q283.71-7.75 283.66-7.3 283.62-6.85 283.51-6.45L283.51-6.45Q284.51-7.05 285.46-7.7 286.41-8.35 287.12-8.95L287.12-8.95 289.21-8.95Q287.66-7.15 285.79-5.63 283.91-4.1 281.56-2.7L281.56-2.7Q280.21-1.25 278.12-0.48 276.01 0.3 273.71 0.3L273.71 0.3Q270.37 0.3 268.39-1.53 266.41-3.35 266.41-6.1L266.41-6.1Q266.41-7.65 267.16-8.93 267.91-10.2 269.06-10.75L269.06-10.75Q270.76-13.8 272.24-17.28 273.71-20.75 275.21-25.55L275.21-25.55 282.62-26.55Q282.76-22.8 282.96-19.7 283.16-16.6 283.46-12.95L283.46-12.95Q283.62-10.85 283.66-10 283.71-9.15 283.71-8.35ZM275.51-20.15L275.51-20.15Q274.87-18.1 273.94-15.88 273.01-13.65 271.46-10.7L271.46-10.7Q272.01-10.45 272.31-10 272.62-9.55 272.62-8.95L272.62-8.95Q272.62-8 271.96-7.25 271.31-6.5 270.41-6.5L270.41-6.5Q269.91-6.5 269.56-6.68 269.21-6.85 269.06-7.15L269.06-7.15Q269.06-5.3 269.79-4.48 270.51-3.65 272.12-3.65L272.12-3.65Q274.16-3.65 275.31-4.85 276.46-6.05 276.46-8.3L276.46-8.3Q276.46-9 276.41-9.73 276.37-10.45 276.21-12.15L276.21-12.15Q275.96-14.5 275.81-16.3 275.66-18.1 275.51-20.15Z" opacity="1" transform="matrix(1,0,0,1,0,0)" fill="#ff2625" class="wordmark-text-0" data-fill-palette-color="primary" id="text-0"></path></svg></g></svg></g></svg></g></svg></g><g></g></svg></g></svg></g></svg></g><g mask="url(&quot;#0a14da0c-3788-44f4-a078-bfdd6d978941&quot;)"><g transform="matrix(3.6780519134219345, 0, 0, 3.6780519134219345, 28.660446440322232, 1)"><svg xmlns="http://www.w3.org/2000/svg" xmlns:xlink="http://www.w3.org/1999/xlink" version="1.1" x="0" y="0" viewBox="3.7577247619628906 16.799999237060547 91.95060729980469 66.66572570800781" enable-background="new 0 0 100 100" xml:space="preserve" height="66.66572570800781" width="91.95060729980469" class="icon-none" data-fill-palette-color="accent" id="none"><g fill="#ee3e38" data-fill-palette-color="accent"><g fill="#ee3e38" data-fill-palette-color="accent"><path d="M38.4 37.6c5.8-4.8 11.9-9.1 18.7-12.4 7.5-3.6 14.9-4.9 22.9-6.9 0.9-0.2 0.7-1.5-0.2-1.5C64.6 17 48.2 26.4 38.2 37.4 38.1 37.5 38.3 37.7 38.4 37.6L38.4 37.6z" fill="#ee3e38" data-fill-palette-color="accent"></path></g></g><g fill="#ee3e38" data-fill-palette-color="accent"><g fill="#ee3e38" data-fill-palette-color="accent"><path d="M40.7 38.3c2.9 0.4 5.4-0.3 7.6-2.3 0.8-0.8 1.6-2.2 1.6-3.4 0-1.2-1.1-2.1-2.2-1.7-1.1 0.3-1.1 1.6-0.3 2.3 0.3 0.2 0.6 0.2 1 0.1-0.4-0.1-0.8-0.2-1.2-0.3 0 0-0.9 1.4-1 1.5-0.4 0.5-1 0.9-1.6 1.3-1.2 0.8-2.7 1.3-3.9 2C40.3 38 40.5 38.3 40.7 38.3L40.7 38.3z" fill="#ee3e38" data-fill-palette-color="accent"></path></g></g><g fill="#ee3e38" data-fill-palette-color="accent"><g fill="#ee3e38" data-fill-palette-color="accent"><path d="M34.7 29.3c-3-3.4-9.6 3.6-11.5 5.7-4.2 4.8-6 13.6-3.1 19.4 0.3 0.6 1.3 0.3 1.2-0.3-0.2-5.6-0.7-10.1 1.9-15.3 1.6-3.2 6.9-10 11.3-9.2C34.7 29.6 34.8 29.4 34.7 29.3L34.7 29.3z" fill="#ee3e38" data-fill-palette-color="accent"></path></g></g><g fill="#ee3e38" data-fill-palette-color="accent"><g fill="#ee3e38" data-fill-palette-color="accent"><path d="M21.5 54.4c-2.9-4.8-13-4.9-16.1 0-1.8 2.8-2.1 5.4-1 8.5 0.8 2.3 2.2 4.6 3.2 6.8 0.6 1.2 1.1 2.3 1.7 3.5 0.3 0.6 0.6 1.1 0.9 1.7 1.2 1 1.2 2 0.1 3-0.3-0.6-1.4-0.4-1.4 0.4 0.3 4 6 2.5 4.7-1.4-1.6-4.8-4.1-9.2-6.2-13.8-2.7-5.7 1.1-9.8 6.9-9.5C16.7 53.8 19.1 54.2 21.5 54.4 21.5 54.5 21.6 54.4 21.5 54.4L21.5 54.4z" fill="#ee3e38" data-fill-palette-color="accent"></path></g></g><g fill="#ee3e38" data-fill-palette-color="accent"><g fill="#ee3e38" data-fill-palette-color="accent"><path d="M22.7 59.9c3.2 3.6 8 3.6 12.3 2 3.8-1.4 7.1 1.6 10 3.6 3.8 2.6 6.8 5.7 9.6 9.3 8.4 10.9 21.7 3.4 33 4.1 1.5 0.1 1.6-2 0.3-2.5-5.5-1.8-11.3 0.2-16.7 1.2-4.4 0.8-8.9 0.6-12.5-2.4-2.2-1.9-3.8-4.7-5.9-6.8-3.2-3.3-7.9-7.1-12.3-8.8-2.3-0.9-3.9-0.9-6.3 0-4.1 1.6-7.4 1.1-11.6 0C22.7 59.6 22.6 59.8 22.7 59.9L22.7 59.9z" fill="#ee3e38" data-fill-palette-color="accent"></path></g></g><g fill="#ee3e38" data-fill-palette-color="accent"><g fill="#ee3e38" data-fill-palette-color="accent"><path d="M35.6 41c-1.4 2.3-2.3 5.3-1.8 8.1 0.3 1.3 1.1 4.8 3.1 3.4 0.6-0.4 0.4-1.4-0.4-1.4-1.2 0-1.5-4.5-1.5-5.1-0.1-1.6 0.2-3.3 0.7-4.9C35.7 41 35.6 41 35.6 41L35.6 41z" fill="#ee3e38" data-fill-palette-color="accent"></path></g></g><g fill="#ee3e38" data-fill-palette-color="accent"><g fill="#ee3e38" data-fill-palette-color="accent"><path d="M36.5 49.7c5.3 0.9 8.9 5.8 13.8 7.7 0.6 0.2 1-0.6 0.6-1-2.1-2.1-4.7-3.5-7.2-5.1-2.2-1.4-4.5-2.3-7.2-2.1C36.2 49.1 36.2 49.6 36.5 49.7L36.5 49.7z" fill="#ee3e38" data-fill-palette-color="accent"></path></g></g><g fill="#ee3e38" data-fill-palette-color="accent"><g fill="#ee3e38" data-fill-palette-color="accent"><path d="M53.5 59c3.9 5.3 6 13.3 13 15.5 0.7 0.2 1.2-0.9 0.5-1.2-6.2-3.2-8.6-9.6-13.1-14.6C53.6 58.5 53.3 58.8 53.5 59L53.5 59z" fill="#ee3e38" data-fill-palette-color="accent"></path></g></g><g fill="#ee3e38" data-fill-palette-color="accent"><g fill="#ee3e38" data-fill-palette-color="accent"><path d="M84.2 73.3c4.6 1.1 6.8 4.8 10.5 7.3 0.5 0.4 1.3-0.4 0.9-0.9-2.5-3.5-7.1-6.3-11.3-6.9C84 72.8 83.9 73.2 84.2 73.3L84.2 73.3z" fill="#ee3e38" data-fill-palette-color="accent"></path></g></g><g fill="#ee3e38" data-fill-palette-color="accent"><g fill="#ee3e38" data-fill-palette-color="accent"><path d="M31.1 63.3c-3.6 0-7.3-0.4-10.9-1.2-3.2-0.7-5.9-2.8-9.1-3.6-1-0.3-1.9 1.1-1.1 1.8C15.1 65.2 24.9 65.2 31.1 63.3 31.2 63.4 31.2 63.3 31.1 63.3L31.1 63.3z" fill="#ee3e38" data-fill-palette-color="accent"></path></g></g><g fill="#ee3e38" data-fill-palette-color="accent"><g fill="#ee3e38" data-fill-palette-color="accent"><path d="M14.2 62.7c-0.2 3.7-0.1 7.4 0.4 11.1 0.2 1.5 0.5 2.9 0.8 4.3 0.8 3.6-3.4 3-5.9 3.2-1.1 0.1-1.5 1.8-0.3 2 2.7 0.4 7.9 0.3 8.6-2.9 0.4-1.8-1.3-5-1.8-6.8-0.9-3.6-1.3-7.3-1.4-10.9C14.7 62.4 14.3 62.4 14.2 62.7L14.2 62.7z" fill="#ee3e38" data-fill-palette-color="accent"></path></g></g><g fill="#ee3e38" data-fill-palette-color="accent"><g fill="#ee3e38" data-fill-palette-color="accent"><path d="M38.7 27.2c0.8-0.4 1.7-0.5 2.6-0.3 1.1 0.2 1.2-1.6 0.2-1.5-1.2 0.1-2.2 0.6-3.1 1.4C38.3 27 38.5 27.3 38.7 27.2L38.7 27.2z" fill="#ee3e38" data-fill-palette-color="accent"></path></g></g><g fill="#ee3e38" data-fill-palette-color="accent"><g fill="#ee3e38" data-fill-palette-color="accent"><path d="M43.9 25.1c9.1-2.6 17.7-4.7 27.1-5.7 0.7-0.1 0.8-1.2 0-1.2-9.2 0.1-19.1 2.2-27.2 6.7C43.8 25 43.8 25.1 43.9 25.1L43.9 25.1z" fill="#ee3e38" data-fill-palette-color="accent"></path></g></g><g fill="#ee3e38" data-fill-palette-color="accent"><g fill="#ee3e38" data-fill-palette-color="accent"><path d="M33.2 28.1c3 0.6 6.1 1 9.2 1 0.8 0 0.8-1.2 0-1.2-3-0.4-6.1-0.4-9.1-0.1C33 27.8 33 28.1 33.2 28.1L33.2 28.1z" fill="#ee3e38" data-fill-palette-color="accent"></path></g></g></svg></g></g><mask id="0a14da0c-3788-44f4-a078-bfdd6d978941"><rect width="640" height="400" fill="white"></rect><g transform="matrix(1,0,0,1,39.55199999999999,99.35694272681195)"><svg viewBox="0 0 316.416 48.48611454637608" height="48.48611454637608" width="316.416"><g><svg viewBox="0 0 316.416 48.48611454637608" height="48.48611454637608" width="316.416"><g><svg viewBox="0 0 316.416 48.48611454637608" height="48.48611454637608" width="316.416"><g><svg viewBox="0 0 316.416 48.48611454637608" height="48.48611454637608" width="316.416"><g id="SvgjsG1149"><svg viewBox="0 0 316.416 48.48611454637608" height="48.48611454637608" width="316.416" id="SvgjsSvg1148"><g><svg viewBox="0 0 316.416 48.48611454637608" height="48.48611454637608" width="316.416"><g transform="matrix(1,0,0,1,0,0)"><svg width="316.416" viewBox="-3.699999988079071 -41.5 296.9100036621094 46.349998474121094" height="48.48611454637608" data-palette-color="#ff2625"><path d="M6.65-34L6.65-34Q9.2-35.65 12.13-36.58 15.05-37.5 17.85-37.5L17.85-37.5Q18.2-37.5 18.63-37.48 19.05-37.45 19.85-37.4L19.85-37.4 16.6-22.1Q18.7-25 23.33-31.15 27.95-37.3 27.95-37.25L27.95-37.25 33.2-37.25 19.3-21.25Q19.5-21.25 19.68-21.25 19.85-21.25 20.25-21.3L20.25-21.3 21.05-21.3Q24.2-21.3 25.73-20 27.25-18.7 27.25-15.95L27.25-15.95Q27.25-14.8 27-13.33 26.75-11.85 25.9-8.85L25.9-8.85Q25.2-6.3 25-5.2 24.8-4.1 24.8-3.3L24.8-3.3Q24.8-2.15 25.33-1.25 25.85-0.35 26.75 0L26.75 0Q25.3 0.4 24.03 0.63 22.75 0.85 21.8 0.85L21.8 0.85Q19.85 0.85 18.88 0.03 17.9-0.8 17.9-2.5L17.9-2.5Q17.9-3.35 18.15-4.58 18.4-5.8 19.15-8.65L19.15-8.65Q20-11.75 20.28-13.18 20.55-14.6 20.55-15.65L20.55-15.65Q20.55-17.35 19.8-18.2 19.05-19.05 17.55-19.05L17.55-19.05Q17.3-19.05 16.98-19 16.65-18.95 15.9-18.85L15.9-18.85 11.9 0 4.7 0 11.95-34Q8.55-32.6 6.75-29.78 4.95-26.95 4.95-23.05L4.95-23.05Q4.95-22.1 5.08-21.4 5.2-20.7 5.5-20.05L5.5-20.05Q5.6-19.85 5.63-19.78 5.65-19.7 5.65-19.65L5.65-19.65Q2.85-19.65 1.58-20.83 0.3-22 0.3-24.5L0.3-24.5Q0.3-27 1.98-29.5 3.65-32 6.65-34ZM42.4-31.65L42.4-31.65Q42.4-30 41.22-28.85 40.05-27.7 38.4-27.7L38.4-27.7Q36.75-27.7 35.6-28.85 34.45-30 34.45-31.65L34.45-31.65Q34.45-33.3 35.6-34.48 36.75-35.65 38.4-35.65L38.4-35.65Q40.05-35.65 41.22-34.48 42.4-33.3 42.4-31.65ZM29.65-5.7L29.65-5.7Q29.65-6.35 29.75-7.18 29.85-8 30.05-8.95L30.05-8.95 33.45-25 40.65-25 37.05-8Q36.95-7.55 36.9-7.18 36.85-6.8 36.85-6.4L36.85-6.4Q36.85-5.4 37.32-4.98 37.8-4.55 38.9-4.55L38.9-4.55Q40.3-4.55 41.55-5.78 42.8-7 43.4-8.95L43.4-8.95 45.5-8.95Q43.9-4.4 41.2-2.05 38.5 0.3 35 0.3L35 0.3Q32.5 0.3 31.07-1.28 29.65-2.85 29.65-5.7ZM55.15-5.35L55.15-5.35Q55.15-6.25 55.37-7.6 55.6-8.95 56.3-11.9L56.3-11.9Q57-14.75 57.2-16 57.4-17.25 57.4-18.1L57.4-18.1Q57.4-19.35 56.95-20 56.5-20.65 55.6-20.65L55.6-20.65Q54.4-20.65 53.37-19.43 52.35-18.2 51.7-16.05L51.7-16.05 48.3 0 41.1 0 46.4-25 53.6-25 53.05-22.4Q54.3-23.8 55.75-24.5 57.2-25.2 58.9-25.2L58.9-25.2Q61.55-25.2 63-23.75 64.45-22.3 64.45-19.55L64.45-19.55Q64.45-18.4 64.17-16.82 63.9-15.25 63.1-12L63.1-12Q62.45-9.45 62.25-8.4 62.05-7.35 62.05-6.65L62.05-6.65Q62.05-5.6 62.55-5.08 63.05-4.55 64.05-4.55L64.05-4.55Q65.3-4.55 66.2-5.4 67.09-6.25 68.25-8.95L68.25-8.95 70.34-8.95Q68.75-4.3 66.47-2 64.2 0.3 61.05 0.3L61.05 0.3Q58.25 0.3 56.7-1.23 55.15-2.75 55.15-5.35ZM83.54-8.35L83.54-8.35Q83.54-7.75 83.49-7.3 83.44-6.85 83.34-6.45L83.34-6.45Q84.34-7.05 85.29-7.7 86.24-8.35 86.94-8.95L86.94-8.95 89.04-8.95Q87.49-7.15 85.62-5.63 83.74-4.1 81.39-2.7L81.39-2.7Q80.04-1.25 77.94-0.48 75.84 0.3 73.54 0.3L73.54 0.3Q70.19 0.3 68.22-1.53 66.24-3.35 66.24-6.1L66.24-6.1Q66.24-7.65 66.99-8.93 67.74-10.2 68.89-10.75L68.89-10.75Q70.59-13.8 72.07-17.28 73.54-20.75 75.04-25.55L75.04-25.55 82.44-26.55Q82.59-22.8 82.79-19.7 82.99-16.6 83.29-12.95L83.29-12.95Q83.44-10.85 83.49-10 83.54-9.15 83.54-8.35ZM75.34-20.15L75.34-20.15Q74.69-18.1 73.77-15.88 72.84-13.65 71.29-10.7L71.29-10.7Q71.84-10.45 72.14-10 72.44-9.55 72.44-8.95L72.44-8.95Q72.44-8 71.79-7.25 71.14-6.5 70.24-6.5L70.24-6.5Q69.74-6.5 69.39-6.68 69.04-6.85 68.89-7.15L68.89-7.15Q68.89-5.3 69.62-4.48 70.34-3.65 71.94-3.65L71.94-3.65Q73.99-3.65 75.14-4.85 76.29-6.05 76.29-8.3L76.29-8.3Q76.29-9 76.24-9.73 76.19-10.45 76.04-12.15L76.04-12.15Q75.79-14.5 75.64-16.3 75.49-18.1 75.34-20.15ZM88.29-23L88.69-25 90.34-25 91.84-31.9 99.24-32.9 97.54-25 100.54-25 100.14-23 97.14-23 93.94-8Q93.84-7.55 93.79-7.18 93.74-6.8 93.74-6.4L93.74-6.4Q93.74-5.4 94.22-4.98 94.69-4.55 95.79-4.55L95.79-4.55Q97.19-4.55 98.44-5.78 99.69-7 100.29-8.95L100.29-8.95 102.39-8.95Q100.79-4.4 98.09-2.05 95.39 0.3 91.89 0.3L91.89 0.3Q89.39 0.3 87.97-1.28 86.54-2.85 86.54-5.7L86.54-5.7Q86.54-6.35 86.64-7.18 86.74-8 86.94-8.95L86.94-8.95 89.94-23 88.29-23ZM98.94-7.7L98.94-7.7Q98.94-10.55 99.86-13.75 100.79-16.95 102.39-19.45L102.39-19.45Q104.24-22.4 106.84-23.93 109.44-25.45 112.64-25.45L112.64-25.45Q115.84-25.45 117.44-23.45 119.04-21.45 119.04-17.45L119.04-17.45Q119.14-17.4 119.26-17.38 119.39-17.35 119.59-17.35L119.59-17.35Q121.14-17.35 123.29-18.2 125.44-19.05 127.29-20.35L127.29-20.35 127.74-19Q126.34-17.5 124.01-16.4 121.69-15.3 118.89-14.85L118.89-14.85Q118.29-8.1 114.99-3.95 111.69 0.2 106.94 0.2L106.94 0.2Q103.04 0.2 100.99-1.8 98.94-3.8 98.94-7.7ZM113.04-22.4L113.04-22.4Q110.64-22.4 108.51-17.55 106.39-12.7 106.39-8.35L106.39-8.35Q106.39-6 106.91-5.15 107.44-4.3 108.94-4.3L108.94-4.3Q110.79-4.3 112.46-7.3 114.14-10.3 114.74-14.7L114.74-14.7Q114.04-14.85 113.71-15.38 113.39-15.9 113.39-16.8L113.39-16.8Q113.39-17.75 113.79-18.45 114.19-19.15 114.94-19.5L114.94-19.5Q114.84-21.1 114.41-21.75 113.99-22.4 113.04-22.4ZM133.98-5.35L133.98-5.35Q133.98-6.25 134.21-7.6 134.44-8.95 135.13-11.9L135.13-11.9Q135.83-14.75 136.03-16 136.23-17.25 136.23-18.1L136.23-18.1Q136.23-19.35 135.78-20 135.33-20.65 134.44-20.65L134.44-20.65Q133.23-20.65 132.21-19.43 131.19-18.2 130.53-16.05L130.53-16.05 127.13 0 119.93 0 125.23-25 132.44-25 131.88-22.4Q133.13-23.8 134.58-24.5 136.03-25.2 137.73-25.2L137.73-25.2Q140.38-25.2 141.83-23.75 143.28-22.3 143.28-19.55L143.28-19.55Q143.28-18.4 143.01-16.82 142.73-15.25 141.94-12L141.94-12Q141.28-9.45 141.08-8.4 140.88-7.35 140.88-6.65L140.88-6.65Q140.88-5.6 141.38-5.08 141.88-4.55 142.88-4.55L142.88-4.55Q144.13-4.55 145.03-5.4 145.94-6.25 147.08-8.95L147.08-8.95 149.19-8.95Q147.58-4.3 145.31-2 143.03 0.3 139.88 0.3L139.88 0.3Q137.08 0.3 135.53-1.23 133.98-2.75 133.98-5.35ZM183.48-31.5L183.48-31.5Q182.13-31.5 180.5-31.73 178.88-31.95 176.48-32.45L176.48-32.45 174.38-22.5 181.68-22.5 180.88-18.8 173.58-18.8 169.53 0 162.33 0 169.53-33.4Q166.08-33.25 164.55-30.75 163.03-28.25 163.03-23.05L163.03-23.05Q163.03-22.1 163.15-21.4 163.28-20.7 163.58-20.05L163.58-20.05Q163.68-19.85 163.7-19.78 163.73-19.7 163.73-19.65L163.73-19.65Q160.93-19.65 159.65-20.83 158.38-22 158.38-24.5L158.38-24.5Q158.38-30.45 162.85-33.98 167.33-37.5 175.43-37.5L175.43-37.5Q175.88-37.5 176.53-37.45 177.18-37.4 178.68-37.25L178.68-37.25Q180.68-37.05 181.75-36.98 182.83-36.9 183.73-36.9L183.73-36.9Q185.08-36.9 186.18-37.05 187.28-37.2 188.23-37.5L188.23-37.5Q188.18-37.4 187.78-35.95 187.38-34.5 186.83-33.65L186.83-33.65Q186.28-32.8 185.45-32.27 184.63-31.75 183.48-31.5ZM193.23-31.65L193.23-31.65Q193.23-30 192.05-28.85 190.88-27.7 189.23-27.7L189.23-27.7Q187.58-27.7 186.43-28.85 185.28-30 185.28-31.65L185.28-31.65Q185.28-33.3 186.43-34.48 187.58-35.65 189.23-35.65L189.23-35.65Q190.88-35.65 192.05-34.48 193.23-33.3 193.23-31.65ZM180.48-5.7L180.48-5.7Q180.48-6.35 180.58-7.18 180.68-8 180.88-8.95L180.88-8.95 184.28-25 191.48-25 187.88-8Q187.78-7.55 187.73-7.18 187.68-6.8 187.68-6.4L187.68-6.4Q187.68-5.4 188.15-4.98 188.63-4.55 189.73-4.55L189.73-4.55Q191.13-4.55 192.38-5.78 193.63-7 194.23-8.95L194.23-8.95 196.33-8.95Q194.73-4.4 192.03-2.05 189.33 0.3 185.83 0.3L185.83 0.3Q183.33 0.3 181.9-1.28 180.48-2.85 180.48-5.7ZM195.57-23L195.97-25 197.63-25 199.13-31.9 206.53-32.9 204.82-25 207.82-25 207.42-23 204.42-23 201.22-8Q201.13-7.55 201.07-7.18 201.03-6.8 201.03-6.4L201.03-6.4Q201.03-5.4 201.5-4.98 201.97-4.55 203.07-4.55L203.07-4.55Q204.47-4.55 205.72-5.78 206.97-7 207.57-8.95L207.57-8.95 209.67-8.95Q208.07-4.4 205.38-2.05 202.67 0.3 199.17 0.3L199.17 0.3Q196.67 0.3 195.25-1.28 193.82-2.85 193.82-5.7L193.82-5.7Q193.82-6.35 193.92-7.18 194.03-8 194.22-8.95L194.22-8.95 197.22-23 195.57-23ZM219.72-5.35L219.72-5.35Q219.72-6.25 219.95-7.6 220.17-8.95 220.87-11.9L220.87-11.9Q221.57-14.75 221.77-16 221.97-17.25 221.97-18.1L221.97-18.1Q221.97-19.35 221.52-20 221.07-20.65 220.17-20.65L220.17-20.65Q218.97-20.65 217.95-19.43 216.92-18.2 216.27-16.05L216.27-16.05 212.87 0 205.67 0 210.97-25 218.17-25 217.62-22.4Q218.87-23.8 220.32-24.5 221.77-25.2 223.47-25.2L223.47-25.2Q226.12-25.2 227.57-23.75 229.02-22.3 229.02-19.55L229.02-19.55Q229.02-18.4 228.75-16.82 228.47-15.25 227.67-12L227.67-12Q227.02-9.45 226.82-8.4 226.62-7.35 226.62-6.65L226.62-6.65Q226.62-5.6 227.12-5.08 227.62-4.55 228.62-4.55L228.62-4.55Q229.87-4.55 230.77-5.4 231.67-6.25 232.82-8.95L232.82-8.95 234.92-8.95Q233.32-4.3 231.05-2 228.77 0.3 225.62 0.3L225.62 0.3Q222.82 0.3 221.27-1.23 219.72-2.75 219.72-5.35ZM251.62-20.65L251.62-20.65Q251.62-16.5 248.22-13.43 244.82-10.35 240.12-10.1L240.12-10.1Q240.07-9.25 240.04-8.83 240.02-8.4 240.02-8.1L240.02-8.1Q240.02-5.8 240.79-4.85 241.57-3.9 243.62-3.9L243.62-3.9Q245.97-3.9 247.94-4.98 249.92-6.05 252.47-8.95L252.47-8.95 254.17-8.95Q251.27-4.25 247.87-1.98 244.47 0.3 240.42 0.3L240.42 0.3Q236.57 0.3 234.59-1.7 232.62-3.7 232.62-7.65L232.62-7.65Q232.62-10.5 233.52-13.7 234.42-16.9 235.92-19.4L235.92-19.4Q237.77-22.4 240.34-23.93 242.92-25.45 246.12-25.45L246.12-25.45Q248.87-25.45 250.24-24.28 251.62-23.1 251.62-20.65ZM246.52-22.8L246.52-22.8Q244.82-22.8 243.09-19.78 241.37-16.75 240.52-12.5L240.52-12.5Q243.42-12.7 245.59-15.18 247.77-17.65 247.77-20.75L247.77-20.75Q247.77-21.8 247.47-22.3 247.17-22.8 246.52-22.8ZM267.22-8.35L267.22-8.35Q267.22-7.75 267.17-7.3 267.12-6.85 267.02-6.45L267.02-6.45Q268.02-7.05 268.97-7.7 269.92-8.35 270.62-8.95L270.62-8.95 272.72-8.95Q271.17-7.15 269.29-5.63 267.42-4.1 265.07-2.7L265.07-2.7Q263.72-1.25 261.62-0.48 259.52 0.3 257.22 0.3L257.22 0.3Q253.87 0.3 251.89-1.53 249.92-3.35 249.92-6.1L249.92-6.1Q249.92-7.65 250.67-8.93 251.42-10.2 252.57-10.75L252.57-10.75Q254.27-13.8 255.74-17.28 257.22-20.75 258.72-25.55L258.72-25.55 266.12-26.55Q266.27-22.8 266.47-19.7 266.67-16.6 266.97-12.95L266.97-12.95Q267.12-10.85 267.17-10 267.22-9.15 267.22-8.35ZM259.02-20.15L259.02-20.15Q258.37-18.1 257.44-15.88 256.52-13.65 254.97-10.7L254.97-10.7Q255.52-10.45 255.82-10 256.12-9.55 256.12-8.95L256.12-8.95Q256.12-8 255.47-7.25 254.82-6.5 253.92-6.5L253.92-6.5Q253.42-6.5 253.07-6.68 252.72-6.85 252.57-7.15L252.57-7.15Q252.57-5.3 253.29-4.48 254.02-3.65 255.62-3.65L255.62-3.65Q257.67-3.65 258.82-4.85 259.97-6.05 259.97-8.3L259.97-8.3Q259.97-9 259.92-9.73 259.87-10.45 259.72-12.15L259.72-12.15Q259.47-14.5 259.32-16.3 259.17-18.1 259.02-20.15ZM283.71-8.35L283.71-8.35Q283.71-7.75 283.66-7.3 283.62-6.85 283.51-6.45L283.51-6.45Q284.51-7.05 285.46-7.7 286.41-8.35 287.12-8.95L287.12-8.95 289.21-8.95Q287.66-7.15 285.79-5.63 283.91-4.1 281.56-2.7L281.56-2.7Q280.21-1.25 278.12-0.48 276.01 0.3 273.71 0.3L273.71 0.3Q270.37 0.3 268.39-1.53 266.41-3.35 266.41-6.1L266.41-6.1Q266.41-7.65 267.16-8.93 267.91-10.2 269.06-10.75L269.06-10.75Q270.76-13.8 272.24-17.28 273.71-20.75 275.21-25.55L275.21-25.55 282.62-26.55Q282.76-22.8 282.96-19.7 283.16-16.6 283.46-12.95L283.46-12.95Q283.62-10.85 283.66-10 283.71-9.15 283.71-8.35ZM275.51-20.15L275.51-20.15Q274.87-18.1 273.94-15.88 273.01-13.65 271.46-10.7L271.46-10.7Q272.01-10.45 272.31-10 272.62-9.55 272.62-8.95L272.62-8.95Q272.62-8 271.96-7.25 271.31-6.5 270.41-6.5L270.41-6.5Q269.91-6.5 269.56-6.68 269.21-6.85 269.06-7.15L269.06-7.15Q269.06-5.3 269.79-4.48 270.51-3.65 272.12-3.65L272.12-3.65Q274.16-3.65 275.31-4.85 276.46-6.05 276.46-8.3L276.46-8.3Q276.46-9 276.41-9.73 276.37-10.45 276.21-12.15L276.21-12.15Q275.96-14.5 275.81-16.3 275.66-18.1 275.51-20.15Z" opacity="1" transform="matrix(1,0,0,1,0,0)" fill="#ff2625" class="wordmark-text-0" data-fill-palette-color="primary" id="SvgjsPath1147" stroke-width="7" stroke="black" stroke-linejoin="round"></path></svg></g></svg></g></svg></g></svg></g><g></g></svg></g></svg></g></svg></g></mask></svg></g><defs></defs></svg><rect width="395.52" height="247.2" fill="none" stroke="none" visibility="hidden"></rect></g></svg></g></svg>